<?xml version="1.0" encoding="UTF-8"?><svg id="a" xmlns="http://www.w3.org/2000/svg" viewBox="0 0 1279.95 260"><defs><style>.b{fill:#fff;}</style></defs><g><path class="b" d="M130,97.89c-13.2,0-25.89-2.17-37.74-6.17-.34-.11-.66,.2-.54,.54,4,11.85,6.17,24.54,6.17,37.74s-2.17,25.89-6.17,37.74c-.11,.34,.2,.66,.54,.54,11.85-4,24.54-6.17,37.74-6.17s25.89,2.17,37.74,6.17c.34,.11,.66-.2,.54-.54-4-11.85-6.17-24.54-6.17-37.74s2.17-25.89,6.17-37.74c.11-.34-.2-.66-.54-.54-11.85,4-24.54,6.17-37.74,6.17Z"/><g><path class="b" d="M194.59,130c0,31.5,17.04,59.01,42.4,73.85,14.5-20.97,23.01-46.41,23.01-73.85s-8.5-52.87-23.01-73.85c-25.36,14.83-42.4,42.35-42.4,73.85Z"/><path class="b" d="M65.41,130c0-31.5-17.04-59.01-42.4-73.85C8.5,77.13,0,102.57,0,130s8.5,52.87,23.01,73.85c25.36-14.83,42.4-42.35,42.4-73.85Z"/><path class="b" d="M203.84,236.99c-14.83-25.36-42.35-42.4-73.84-42.4s-59.01,17.04-73.84,42.4c20.97,14.5,46.41,23.01,73.84,23.01s52.87-8.5,73.84-23.01Z"/><path class="b" d="M130,65.41c31.5,0,59.01-17.04,73.85-42.4C182.87,8.5,157.43,0,130,0S77.13,8.5,56.15,23.01c14.83,25.36,42.35,42.4,73.84,42.4Z"/></g></g><polygon class="b" points="508.17 217.04 508.17 42.2 547.82 42.2 547.82 184.16 628.48 184.16 628.48 217.04 508.17 217.04"/><path class="b" d="M712.18,69.81c-28.02,0-46.13,23.63-46.13,60.19s17.68,59.94,46.13,59.94,45.87-22.97,45.87-59.94-17.57-60.2-45.87-60.2h0Zm-.25,151.51c-51.61,0-86.29-36.69-86.29-91.31s34.68-91.31,86.29-91.31,86.54,36.69,86.54,91.31-34.78,91.31-86.54,91.31Z"/><path class="b" d="M853.71,113.31h38.59c14.81,0,24.02-7.85,24.02-20.5s-9.11-20.25-23.77-20.25h-38.84v40.75Zm0,72.86h42.1c15.81,0,26.03-9.23,26.03-23.51s-10.41-24.02-26.53-24.02h-41.61v47.53Zm-39.16,30.87V42.2h84.28c17.26,0,28.46,3.96,38.03,11.77,9.74,8.08,14.69,19.04,14.69,32.56,0,15.89-5.53,29.06-21.17,35.02l-1.55,.59,1.7,.52c18.79,5.78,28.06,23.85,28.06,43.77,0,16.8-5.69,29.32-17.4,38.29-10.41,8.18-22.38,12.32-40.35,12.32h-86.29Z"/><polygon class="b" points="1083.42 217.04 1083.42 142.17 1015.54 142.17 1015.54 217.04 975.88 217.04 975.88 42.2 1015.54 42.2 1015.54 110.3 1083.42 110.3 1083.42 42.2 1123.08 42.2 1123.08 217.04 1083.42 217.04"/><polygon class="b" points="1147.07 217.04 1147.07 42.2 1278.44 42.2 1278.44 74.08 1186.73 74.08 1186.73 111.05 1265.37 111.05 1265.37 140.91 1186.73 140.91 1186.73 184.17 1279.95 184.17 1279.95 217.04 1147.07 217.04"/><path class="b" d="M416.54,125.37v27.85h33.67v1.92s-8.5,40.1-51,33.81c-23.07-4.83-37.97-27.2-37.97-58.71,0-36.82,17.96-59.69,46.88-59.69,18.47,0,32.39,9.77,36.8,25.63h38.49c-6.79-36.59-34.62-57.5-76.8-57.5-24.26,0-44.95,8.01-59.86,23.17-16.72,16.72-25.93,41.01-25.93,68.4s8.13,49.61,23.48,66.46c14.69,15.93,35.27,24.35,59.54,24.35,22.33,0,38.36-8.02,48.98-24.53l.71-1.1v21.61h33.08V125.37h-70.06Z"/></svg>